<mxfile host="65bd71144e">
    <diagram id="eCA5egAgRWIzLLH1qS1m" name="Page-1">
        <mxGraphModel dx="840" dy="718" grid="1" gridSize="10" guides="1" tooltips="1" connect="1" arrows="1" fold="1" page="1" pageScale="1" pageWidth="827" pageHeight="1169" math="0" shadow="0">
            <root>
                <mxCell id="0"/>
                <mxCell id="1" parent="0"/>
                <mxCell id="3" value="&lt;font style=&quot;font-size: 20px&quot;&gt;N = 5&lt;/font&gt;" style="text;html=1;resizable=0;autosize=1;align=center;verticalAlign=middle;points=[];fillColor=none;strokeColor=none;rounded=0;" vertex="1" parent="1">
                    <mxGeometry x="320" y="160" width="60" height="20" as="geometry"/>
                </mxCell>
                <mxCell id="13" value="&lt;font style=&quot;font-size: 20px&quot;&gt;Starting Variables&lt;/font&gt;" style="text;html=1;resizable=0;autosize=1;align=center;verticalAlign=middle;points=[];fillColor=none;strokeColor=none;rounded=0;" vertex="1" parent="1">
                    <mxGeometry x="265" y="110" width="170" height="20" as="geometry"/>
                </mxCell>
                <mxCell id="27" value="" style="group" vertex="1" connectable="0" parent="1">
                    <mxGeometry x="170" y="360" width="220" height="80" as="geometry"/>
                </mxCell>
                <mxCell id="24" value="" style="whiteSpace=wrap;html=1;fontSize=20;rounded=1;" vertex="1" parent="27">
                    <mxGeometry width="220" height="80" as="geometry"/>
                </mxCell>
                <mxCell id="14" value="&lt;span style=&quot;font-size: 20px&quot;&gt;A&lt;/span&gt;" style="text;html=1;resizable=0;autosize=1;align=center;verticalAlign=middle;points=[];fillColor=none;strokeColor=none;rounded=0;" vertex="1" parent="27">
                    <mxGeometry x="30" y="20" width="30" height="20" as="geometry"/>
                </mxCell>
                <mxCell id="15" value="" style="ellipse;whiteSpace=wrap;html=1;" vertex="1" parent="27">
                    <mxGeometry x="110" y="20" width="40" height="40" as="geometry"/>
                </mxCell>
                <mxCell id="28" value="" style="group" vertex="1" connectable="0" parent="1">
                    <mxGeometry x="170" y="480" width="220" height="80" as="geometry"/>
                </mxCell>
                <mxCell id="25" value="" style="whiteSpace=wrap;html=1;fontSize=20;rounded=1;" vertex="1" parent="28">
                    <mxGeometry width="220" height="80" as="geometry"/>
                </mxCell>
                <mxCell id="16" value="&lt;span style=&quot;font-size: 20px&quot;&gt;B&lt;/span&gt;" style="text;html=1;resizable=0;autosize=1;align=center;verticalAlign=middle;points=[];fillColor=none;strokeColor=none;rounded=0;" vertex="1" parent="28">
                    <mxGeometry x="30" y="20" width="30" height="20" as="geometry"/>
                </mxCell>
                <mxCell id="18" value="" style="endArrow=none;html=1;fontSize=20;" edge="1" parent="28">
                    <mxGeometry width="50" height="50" relative="1" as="geometry">
                        <mxPoint x="110" y="60" as="sourcePoint"/>
                        <mxPoint x="150" y="60" as="targetPoint"/>
                    </mxGeometry>
                </mxCell>
                <mxCell id="32" value="" style="whiteSpace=wrap;html=1;fontSize=20;rounded=1;container=0;" vertex="1" parent="1">
                    <mxGeometry x="1030" y="280" width="370" height="160" as="geometry"/>
                </mxCell>
                <mxCell id="33" value="&lt;span style=&quot;font-size: 20px&quot;&gt;A&lt;/span&gt;" style="text;html=1;resizable=0;autosize=1;align=center;verticalAlign=middle;points=[];fillColor=none;strokeColor=none;rounded=0;container=0;" vertex="1" parent="1">
                    <mxGeometry x="1176" y="300" width="30" height="20" as="geometry"/>
                </mxCell>
                <mxCell id="34" value="" style="ellipse;whiteSpace=wrap;html=1;container=0;" vertex="1" parent="1">
                    <mxGeometry x="1176" y="370" width="40" height="40" as="geometry"/>
                </mxCell>
                <mxCell id="39" value="&lt;font style=&quot;font-size: 20px&quot;&gt;+&lt;/font&gt;" style="text;html=1;resizable=0;autosize=1;align=center;verticalAlign=middle;points=[];fillColor=none;strokeColor=none;rounded=0;container=0;" vertex="1" parent="1">
                    <mxGeometry x="1250" y="340" width="30" height="20" as="geometry"/>
                </mxCell>
                <mxCell id="41" value="" style="endArrow=none;html=1;fontSize=20;" edge="1" parent="1">
                    <mxGeometry width="50" height="50" relative="1" as="geometry">
                        <mxPoint x="1311" y="400" as="sourcePoint"/>
                        <mxPoint x="1351" y="400" as="targetPoint"/>
                    </mxGeometry>
                </mxCell>
                <mxCell id="42" value="&lt;font style=&quot;font-size: 20px&quot;&gt;B&lt;/font&gt;" style="text;html=1;resizable=0;autosize=1;align=center;verticalAlign=middle;points=[];fillColor=none;strokeColor=none;rounded=0;container=0;" vertex="1" parent="1">
                    <mxGeometry x="1316" y="300" width="30" height="20" as="geometry"/>
                </mxCell>
                <mxCell id="48" value="" style="whiteSpace=wrap;html=1;fontSize=20;rounded=1;container=0;" vertex="1" parent="1">
                    <mxGeometry x="1040" y="480" width="201" height="80" as="geometry"/>
                </mxCell>
                <mxCell id="49" value="&lt;span style=&quot;font-size: 20px&quot;&gt;b = temp&lt;/span&gt;" style="text;html=1;resizable=0;autosize=1;align=center;verticalAlign=middle;points=[];fillColor=none;strokeColor=none;rounded=0;container=0;" vertex="1" parent="1">
                    <mxGeometry x="1054.5" y="510" width="90" height="20" as="geometry"/>
                </mxCell>
                <mxCell id="50" value="" style="ellipse;whiteSpace=wrap;html=1;container=0;" vertex="1" parent="1">
                    <mxGeometry x="1161" y="500" width="40" height="40" as="geometry"/>
                </mxCell>
                <mxCell id="26" value="" style="whiteSpace=wrap;html=1;fontSize=20;rounded=1;container=0;" vertex="1" parent="1">
                    <mxGeometry x="1040" y="160" width="200" height="80" as="geometry"/>
                </mxCell>
                <mxCell id="19" value="&lt;span style=&quot;font-size: 20px&quot;&gt;temp = a&lt;/span&gt;" style="text;html=1;resizable=0;autosize=1;align=center;verticalAlign=middle;points=[];fillColor=none;strokeColor=none;rounded=0;container=0;" vertex="1" parent="1">
                    <mxGeometry x="1061" y="190" width="90" height="20" as="geometry"/>
                </mxCell>
                <mxCell id="30" value="" style="ellipse;whiteSpace=wrap;html=1;container=0;" vertex="1" parent="1">
                    <mxGeometry x="1170" y="180" width="40" height="40" as="geometry"/>
                </mxCell>
                <mxCell id="52" value="" style="group" vertex="1" connectable="0" parent="1">
                    <mxGeometry x="240" y="240" width="200" height="80" as="geometry"/>
                </mxCell>
                <mxCell id="2" value="" style="ellipse;whiteSpace=wrap;html=1;" vertex="1" parent="52">
                    <mxGeometry width="40" height="40" as="geometry"/>
                </mxCell>
                <mxCell id="4" value="" style="ellipse;whiteSpace=wrap;html=1;" vertex="1" parent="52">
                    <mxGeometry x="40" y="40" width="40" height="40" as="geometry"/>
                </mxCell>
                <mxCell id="5" value="" style="ellipse;whiteSpace=wrap;html=1;" vertex="1" parent="52">
                    <mxGeometry x="80" width="40" height="40" as="geometry"/>
                </mxCell>
                <mxCell id="6" value="" style="ellipse;whiteSpace=wrap;html=1;" vertex="1" parent="52">
                    <mxGeometry x="160" width="40" height="40" as="geometry"/>
                </mxCell>
                <mxCell id="7" value="" style="ellipse;whiteSpace=wrap;html=1;" vertex="1" parent="52">
                    <mxGeometry x="120" y="40" width="40" height="40" as="geometry"/>
                </mxCell>
                <mxCell id="64" value="" style="group" vertex="1" connectable="0" parent="1">
                    <mxGeometry x="1160" y="650" width="320" height="157.5" as="geometry"/>
                </mxCell>
                <mxCell id="65" value="" style="whiteSpace=wrap;html=1;rounded=1;fontSize=20;" vertex="1" parent="64">
                    <mxGeometry x="-120" y="-10" width="426" height="150" as="geometry"/>
                </mxCell>
                <mxCell id="55" value="" style="ellipse;whiteSpace=wrap;html=1;container=0;" vertex="1" parent="64">
                    <mxGeometry y="5" width="40" height="40" as="geometry"/>
                </mxCell>
                <mxCell id="56" value="" style="ellipse;whiteSpace=wrap;html=1;container=0;" vertex="1" parent="64">
                    <mxGeometry x="56" y="85" width="40" height="40" as="geometry"/>
                </mxCell>
                <mxCell id="57" value="" style="ellipse;whiteSpace=wrap;html=1;container=0;" vertex="1" parent="64">
                    <mxGeometry x="121" y="5" width="40" height="40" as="geometry"/>
                </mxCell>
                <mxCell id="59" value="" style="ellipse;whiteSpace=wrap;html=1;container=0;" vertex="1" parent="64">
                    <mxGeometry x="181" y="85" width="40" height="40" as="geometry"/>
                </mxCell>
                <mxCell id="62" value="" style="ellipse;whiteSpace=wrap;html=1;container=0;" vertex="1" parent="64">
                    <mxGeometry x="240" y="5" width="40" height="40" as="geometry"/>
                </mxCell>
                <mxCell id="63" value="" style="endArrow=none;html=1;fontSize=20;" edge="1" parent="64">
                    <mxGeometry width="50" height="50" relative="1" as="geometry">
                        <mxPoint x="235" y="50" as="sourcePoint"/>
                        <mxPoint x="285" as="targetPoint"/>
                    </mxGeometry>
                </mxCell>
                <mxCell id="67" value="" style="group" vertex="1" connectable="0" parent="1">
                    <mxGeometry x="620" y="160" width="485" height="220" as="geometry"/>
                </mxCell>
                <mxCell id="9" style="edgeStyle=none;html=1;fontSize=20;" edge="1" parent="67" source="8">
                    <mxGeometry relative="1" as="geometry">
                        <mxPoint x="260" y="10" as="targetPoint"/>
                    </mxGeometry>
                </mxCell>
                <mxCell id="11" style="edgeStyle=none;html=1;fontSize=20;" edge="1" parent="67" source="8">
                    <mxGeometry relative="1" as="geometry">
                        <mxPoint x="50" y="180" as="targetPoint"/>
                    </mxGeometry>
                </mxCell>
                <mxCell id="8" value="&lt;font style=&quot;font-size: 20px&quot;&gt;Is N &amp;gt; = 0&lt;/font&gt;" style="text;html=1;resizable=0;autosize=1;align=center;verticalAlign=middle;points=[];fillColor=none;strokeColor=none;rounded=0;" vertex="1" parent="67">
                    <mxGeometry width="100" height="20" as="geometry"/>
                </mxCell>
                <mxCell id="10" value="&lt;font style=&quot;font-size: 20px&quot;&gt;Yes&lt;/font&gt;" style="text;html=1;resizable=0;autosize=1;align=center;verticalAlign=middle;points=[];fillColor=none;strokeColor=none;rounded=0;" vertex="1" parent="67">
                    <mxGeometry x="300" width="50" height="20" as="geometry"/>
                </mxCell>
                <mxCell id="12" value="&lt;font style=&quot;font-size: 20px&quot;&gt;No&lt;/font&gt;" style="text;html=1;resizable=0;autosize=1;align=center;verticalAlign=middle;points=[];fillColor=none;strokeColor=none;rounded=0;" vertex="1" parent="67">
                    <mxGeometry x="30" y="200" width="40" height="20" as="geometry"/>
                </mxCell>
                <mxCell id="84" value="&lt;span style=&quot;font-size: 20px&quot;&gt;a =&lt;/span&gt;" style="text;html=1;resizable=0;autosize=1;align=center;verticalAlign=middle;points=[];fillColor=none;strokeColor=none;rounded=0;container=0;" vertex="1" parent="67">
                    <mxGeometry x="445" y="190" width="40" height="20" as="geometry"/>
                </mxCell>
                <mxCell id="68" value="" style="group" vertex="1" connectable="0" parent="1">
                    <mxGeometry x="620" y="870" width="350" height="220" as="geometry"/>
                </mxCell>
                <mxCell id="69" style="edgeStyle=none;html=1;fontSize=20;" edge="1" parent="68" source="71">
                    <mxGeometry relative="1" as="geometry">
                        <mxPoint x="260" y="10" as="targetPoint"/>
                    </mxGeometry>
                </mxCell>
                <mxCell id="70" style="edgeStyle=none;html=1;fontSize=20;" edge="1" parent="68" source="71">
                    <mxGeometry relative="1" as="geometry">
                        <mxPoint x="50" y="180" as="targetPoint"/>
                    </mxGeometry>
                </mxCell>
                <mxCell id="71" value="&lt;font style=&quot;font-size: 20px&quot;&gt;Is N &amp;gt; = 0&lt;/font&gt;" style="text;html=1;resizable=0;autosize=1;align=center;verticalAlign=middle;points=[];fillColor=none;strokeColor=none;rounded=0;" vertex="1" parent="68">
                    <mxGeometry width="100" height="20" as="geometry"/>
                </mxCell>
                <mxCell id="72" value="&lt;font style=&quot;font-size: 20px&quot;&gt;Yes&lt;/font&gt;" style="text;html=1;resizable=0;autosize=1;align=center;verticalAlign=middle;points=[];fillColor=none;strokeColor=none;rounded=0;" vertex="1" parent="68">
                    <mxGeometry x="300" width="50" height="20" as="geometry"/>
                </mxCell>
                <mxCell id="73" value="&lt;font style=&quot;font-size: 20px&quot;&gt;No&lt;/font&gt;" style="text;html=1;resizable=0;autosize=1;align=center;verticalAlign=middle;points=[];fillColor=none;strokeColor=none;rounded=0;" vertex="1" parent="68">
                    <mxGeometry x="30" y="200" width="40" height="20" as="geometry"/>
                </mxCell>
                <mxCell id="74" value="" style="whiteSpace=wrap;html=1;fontSize=20;rounded=1;container=0;" vertex="1" parent="1">
                    <mxGeometry x="1038.5" y="1000" width="340" height="160" as="geometry"/>
                </mxCell>
                <mxCell id="75" value="&lt;span style=&quot;font-size: 20px&quot;&gt;A&lt;/span&gt;" style="text;html=1;resizable=0;autosize=1;align=center;verticalAlign=middle;points=[];fillColor=none;strokeColor=none;rounded=0;container=0;" vertex="1" parent="1">
                    <mxGeometry x="1154.5" y="1020" width="30" height="20" as="geometry"/>
                </mxCell>
                <mxCell id="76" value="" style="ellipse;whiteSpace=wrap;html=1;container=0;" vertex="1" parent="1">
                    <mxGeometry x="1154.5" y="1090" width="40" height="40" as="geometry"/>
                </mxCell>
                <mxCell id="77" value="&lt;font style=&quot;font-size: 20px&quot;&gt;+&lt;/font&gt;" style="text;html=1;resizable=0;autosize=1;align=center;verticalAlign=middle;points=[];fillColor=none;strokeColor=none;rounded=0;container=0;" vertex="1" parent="1">
                    <mxGeometry x="1228.5" y="1060" width="30" height="20" as="geometry"/>
                </mxCell>
                <mxCell id="79" value="&lt;font style=&quot;font-size: 20px&quot;&gt;B&lt;/font&gt;" style="text;html=1;resizable=0;autosize=1;align=center;verticalAlign=middle;points=[];fillColor=none;strokeColor=none;rounded=0;container=0;" vertex="1" parent="1">
                    <mxGeometry x="1294.5" y="1020" width="30" height="20" as="geometry"/>
                </mxCell>
                <mxCell id="80" value="" style="whiteSpace=wrap;html=1;fontSize=20;rounded=1;container=0;" vertex="1" parent="1">
                    <mxGeometry x="1040" y="880" width="200" height="80" as="geometry"/>
                </mxCell>
                <mxCell id="81" value="&lt;span style=&quot;font-size: 20px&quot;&gt;temp = a&lt;/span&gt;" style="text;html=1;resizable=0;autosize=1;align=center;verticalAlign=middle;points=[];fillColor=none;strokeColor=none;rounded=0;container=0;" vertex="1" parent="1">
                    <mxGeometry x="1061" y="910" width="90" height="20" as="geometry"/>
                </mxCell>
                <mxCell id="82" value="" style="ellipse;whiteSpace=wrap;html=1;container=0;" vertex="1" parent="1">
                    <mxGeometry x="1170" y="900" width="40" height="40" as="geometry"/>
                </mxCell>
                <mxCell id="83" value="" style="ellipse;whiteSpace=wrap;html=1;container=0;" vertex="1" parent="1">
                    <mxGeometry x="1289.5" y="1090" width="40" height="40" as="geometry"/>
                </mxCell>
                <mxCell id="85" value="&lt;span style=&quot;font-size: 20px&quot;&gt;a =&lt;/span&gt;" style="text;html=1;resizable=0;autosize=1;align=center;verticalAlign=middle;points=[];fillColor=none;strokeColor=none;rounded=0;container=0;" vertex="1" parent="1">
                    <mxGeometry x="1053.5" y="1070" width="40" height="20" as="geometry"/>
                </mxCell>
                <mxCell id="87" value="" style="whiteSpace=wrap;html=1;fontSize=20;rounded=1;container=0;" vertex="1" parent="1">
                    <mxGeometry x="1040" y="1940" width="280" height="80" as="geometry"/>
                </mxCell>
                <mxCell id="88" value="&lt;span style=&quot;font-size: 20px&quot;&gt;b = temp&lt;/span&gt;" style="text;html=1;resizable=0;autosize=1;align=center;verticalAlign=middle;points=[];fillColor=none;strokeColor=none;rounded=0;container=0;" vertex="1" parent="1">
                    <mxGeometry x="1056" y="1970" width="90" height="20" as="geometry"/>
                </mxCell>
                <mxCell id="89" value="" style="ellipse;whiteSpace=wrap;html=1;container=0;" vertex="1" parent="1">
                    <mxGeometry x="1161" y="1960" width="40" height="40" as="geometry"/>
                </mxCell>
                <mxCell id="92" value="" style="whiteSpace=wrap;html=1;rounded=1;fontSize=20;container=0;" vertex="1" parent="1">
                    <mxGeometry x="1040" y="1320" width="426" height="150" as="geometry"/>
                </mxCell>
                <mxCell id="93" value="" style="ellipse;whiteSpace=wrap;html=1;container=0;" vertex="1" parent="1">
                    <mxGeometry x="1160" y="1335" width="40" height="40" as="geometry"/>
                </mxCell>
                <mxCell id="94" value="" style="ellipse;whiteSpace=wrap;html=1;container=0;" vertex="1" parent="1">
                    <mxGeometry x="1216" y="1415" width="40" height="40" as="geometry"/>
                </mxCell>
                <mxCell id="95" value="" style="ellipse;whiteSpace=wrap;html=1;container=0;" vertex="1" parent="1">
                    <mxGeometry x="1281" y="1335" width="40" height="40" as="geometry"/>
                </mxCell>
                <mxCell id="96" value="" style="ellipse;whiteSpace=wrap;html=1;container=0;" vertex="1" parent="1">
                    <mxGeometry x="1341" y="1415" width="40" height="40" as="geometry"/>
                </mxCell>
                <mxCell id="97" value="" style="ellipse;whiteSpace=wrap;html=1;container=0;" vertex="1" parent="1">
                    <mxGeometry x="1400" y="1335" width="40" height="40" as="geometry"/>
                </mxCell>
                <mxCell id="98" value="" style="endArrow=none;html=1;fontSize=20;" edge="1" parent="1">
                    <mxGeometry width="50" height="50" relative="1" as="geometry">
                        <mxPoint x="1395" y="1380" as="sourcePoint"/>
                        <mxPoint x="1445" y="1330" as="targetPoint"/>
                    </mxGeometry>
                </mxCell>
                <mxCell id="99" value="&lt;span style=&quot;font-size: 20px&quot;&gt;n = n -1&lt;/span&gt;" style="text;html=1;resizable=0;autosize=1;align=center;verticalAlign=middle;points=[];fillColor=none;strokeColor=none;rounded=0;container=0;" vertex="1" parent="1">
                    <mxGeometry x="1046.5" y="1385" width="80" height="20" as="geometry"/>
                </mxCell>
                <mxCell id="101" value="" style="endArrow=none;html=1;fontSize=20;" edge="1" parent="1">
                    <mxGeometry width="50" height="50" relative="1" as="geometry">
                        <mxPoint x="1336" y="1460" as="sourcePoint"/>
                        <mxPoint x="1386" y="1410" as="targetPoint"/>
                    </mxGeometry>
                </mxCell>
                <mxCell id="102" value="" style="group" vertex="1" connectable="0" parent="1">
                    <mxGeometry x="620" y="1550" width="350" height="220" as="geometry"/>
                </mxCell>
                <mxCell id="103" style="edgeStyle=none;html=1;fontSize=20;" edge="1" parent="102" source="105">
                    <mxGeometry relative="1" as="geometry">
                        <mxPoint x="260" y="10" as="targetPoint"/>
                    </mxGeometry>
                </mxCell>
                <mxCell id="104" style="edgeStyle=none;html=1;fontSize=20;" edge="1" parent="102" source="105">
                    <mxGeometry relative="1" as="geometry">
                        <mxPoint x="50" y="180" as="targetPoint"/>
                    </mxGeometry>
                </mxCell>
                <mxCell id="105" value="&lt;font style=&quot;font-size: 20px&quot;&gt;Is N &amp;gt; = 0&lt;/font&gt;" style="text;html=1;resizable=0;autosize=1;align=center;verticalAlign=middle;points=[];fillColor=none;strokeColor=none;rounded=0;" vertex="1" parent="102">
                    <mxGeometry width="100" height="20" as="geometry"/>
                </mxCell>
                <mxCell id="106" value="&lt;font style=&quot;font-size: 20px&quot;&gt;Yes&lt;/font&gt;" style="text;html=1;resizable=0;autosize=1;align=center;verticalAlign=middle;points=[];fillColor=none;strokeColor=none;rounded=0;" vertex="1" parent="102">
                    <mxGeometry x="300" width="50" height="20" as="geometry"/>
                </mxCell>
                <mxCell id="107" value="&lt;font style=&quot;font-size: 20px&quot;&gt;No&lt;/font&gt;" style="text;html=1;resizable=0;autosize=1;align=center;verticalAlign=middle;points=[];fillColor=none;strokeColor=none;rounded=0;" vertex="1" parent="102">
                    <mxGeometry x="30" y="200" width="40" height="20" as="geometry"/>
                </mxCell>
                <mxCell id="108" value="" style="whiteSpace=wrap;html=1;fontSize=20;rounded=1;container=0;" vertex="1" parent="1">
                    <mxGeometry x="1038.5" y="1560" width="271.5" height="80" as="geometry"/>
                </mxCell>
                <mxCell id="109" value="&lt;span style=&quot;font-size: 20px&quot;&gt;temp = a&lt;/span&gt;" style="text;html=1;resizable=0;autosize=1;align=center;verticalAlign=middle;points=[];fillColor=none;strokeColor=none;rounded=0;container=0;" vertex="1" parent="1">
                    <mxGeometry x="1059.5" y="1590" width="90" height="20" as="geometry"/>
                </mxCell>
                <mxCell id="110" value="" style="ellipse;whiteSpace=wrap;html=1;container=0;" vertex="1" parent="1">
                    <mxGeometry x="1168.5" y="1580" width="40" height="40" as="geometry"/>
                </mxCell>
                <mxCell id="111" value="" style="ellipse;whiteSpace=wrap;html=1;container=0;" vertex="1" parent="1">
                    <mxGeometry x="1233" y="1580" width="40" height="40" as="geometry"/>
                </mxCell>
                <mxCell id="112" value="" style="whiteSpace=wrap;html=1;fontSize=20;rounded=1;container=0;" vertex="1" parent="1">
                    <mxGeometry x="1038.5" y="1680" width="340" height="220" as="geometry"/>
                </mxCell>
                <mxCell id="113" value="&lt;span style=&quot;font-size: 20px&quot;&gt;A&lt;/span&gt;" style="text;html=1;resizable=0;autosize=1;align=center;verticalAlign=middle;points=[];fillColor=none;strokeColor=none;rounded=0;container=0;" vertex="1" parent="1">
                    <mxGeometry x="1154.5" y="1700" width="30" height="20" as="geometry"/>
                </mxCell>
                <mxCell id="114" value="" style="ellipse;whiteSpace=wrap;html=1;container=0;" vertex="1" parent="1">
                    <mxGeometry x="1154.5" y="1770" width="40" height="40" as="geometry"/>
                </mxCell>
                <mxCell id="115" value="&lt;font style=&quot;font-size: 20px&quot;&gt;+&lt;/font&gt;" style="text;html=1;resizable=0;autosize=1;align=center;verticalAlign=middle;points=[];fillColor=none;strokeColor=none;rounded=0;container=0;" vertex="1" parent="1">
                    <mxGeometry x="1228.5" y="1740" width="30" height="20" as="geometry"/>
                </mxCell>
                <mxCell id="116" value="&lt;font style=&quot;font-size: 20px&quot;&gt;B&lt;/font&gt;" style="text;html=1;resizable=0;autosize=1;align=center;verticalAlign=middle;points=[];fillColor=none;strokeColor=none;rounded=0;container=0;" vertex="1" parent="1">
                    <mxGeometry x="1294.5" y="1700" width="30" height="20" as="geometry"/>
                </mxCell>
                <mxCell id="117" value="" style="ellipse;whiteSpace=wrap;html=1;container=0;" vertex="1" parent="1">
                    <mxGeometry x="1289.5" y="1770" width="40" height="40" as="geometry"/>
                </mxCell>
                <mxCell id="118" value="&lt;span style=&quot;font-size: 20px&quot;&gt;a =&lt;/span&gt;" style="text;html=1;resizable=0;autosize=1;align=center;verticalAlign=middle;points=[];fillColor=none;strokeColor=none;rounded=0;container=0;" vertex="1" parent="1">
                    <mxGeometry x="1053.5" y="1750" width="40" height="20" as="geometry"/>
                </mxCell>
                <mxCell id="119" value="" style="ellipse;whiteSpace=wrap;html=1;container=0;" vertex="1" parent="1">
                    <mxGeometry x="1154.5" y="1830" width="40" height="40" as="geometry"/>
                </mxCell>
                <mxCell id="120" value="" style="whiteSpace=wrap;html=1;rounded=1;fontSize=20;container=0;" vertex="1" parent="1">
                    <mxGeometry x="1038.5" y="2080" width="426" height="150" as="geometry"/>
                </mxCell>
                <mxCell id="121" value="" style="ellipse;whiteSpace=wrap;html=1;container=0;" vertex="1" parent="1">
                    <mxGeometry x="1158.5" y="2095" width="40" height="40" as="geometry"/>
                </mxCell>
                <mxCell id="122" value="" style="ellipse;whiteSpace=wrap;html=1;container=0;" vertex="1" parent="1">
                    <mxGeometry x="1214.5" y="2175" width="40" height="40" as="geometry"/>
                </mxCell>
                <mxCell id="123" value="" style="ellipse;whiteSpace=wrap;html=1;container=0;" vertex="1" parent="1">
                    <mxGeometry x="1279.5" y="2095" width="40" height="40" as="geometry"/>
                </mxCell>
                <mxCell id="124" value="" style="ellipse;whiteSpace=wrap;html=1;container=0;" vertex="1" parent="1">
                    <mxGeometry x="1339.5" y="2175" width="40" height="40" as="geometry"/>
                </mxCell>
                <mxCell id="125" value="" style="ellipse;whiteSpace=wrap;html=1;container=0;" vertex="1" parent="1">
                    <mxGeometry x="1398.5" y="2095" width="40" height="40" as="geometry"/>
                </mxCell>
                <mxCell id="126" value="" style="endArrow=none;html=1;fontSize=20;" edge="1" parent="1">
                    <mxGeometry width="50" height="50" relative="1" as="geometry">
                        <mxPoint x="1393.5" y="2140" as="sourcePoint"/>
                        <mxPoint x="1443.5" y="2090" as="targetPoint"/>
                    </mxGeometry>
                </mxCell>
                <mxCell id="127" value="&lt;span style=&quot;font-size: 20px&quot;&gt;n = n -1&lt;/span&gt;" style="text;html=1;resizable=0;autosize=1;align=center;verticalAlign=middle;points=[];fillColor=none;strokeColor=none;rounded=0;container=0;" vertex="1" parent="1">
                    <mxGeometry x="1045" y="2145" width="80" height="20" as="geometry"/>
                </mxCell>
                <mxCell id="128" value="" style="endArrow=none;html=1;fontSize=20;" edge="1" parent="1">
                    <mxGeometry width="50" height="50" relative="1" as="geometry">
                        <mxPoint x="1334.5" y="2220" as="sourcePoint"/>
                        <mxPoint x="1384.5" y="2170" as="targetPoint"/>
                    </mxGeometry>
                </mxCell>
                <mxCell id="134" value="" style="endArrow=none;html=1;fontSize=20;" edge="1" parent="1">
                    <mxGeometry width="50" height="50" relative="1" as="geometry">
                        <mxPoint x="1276" y="2140" as="sourcePoint"/>
                        <mxPoint x="1326" y="2090" as="targetPoint"/>
                    </mxGeometry>
                </mxCell>
                <mxCell id="135" value="" style="ellipse;whiteSpace=wrap;html=1;container=0;" vertex="1" parent="1">
                    <mxGeometry x="1228.5" y="1960" width="40" height="40" as="geometry"/>
                </mxCell>
                <mxCell id="136" value="" style="group" vertex="1" connectable="0" parent="1">
                    <mxGeometry x="620" y="2280" width="350" height="220" as="geometry"/>
                </mxCell>
                <mxCell id="137" style="edgeStyle=none;html=1;fontSize=20;" edge="1" parent="136" source="139">
                    <mxGeometry relative="1" as="geometry">
                        <mxPoint x="260" y="10" as="targetPoint"/>
                    </mxGeometry>
                </mxCell>
                <mxCell id="138" style="edgeStyle=none;html=1;fontSize=20;" edge="1" parent="136" source="139">
                    <mxGeometry relative="1" as="geometry">
                        <mxPoint x="50" y="180" as="targetPoint"/>
                    </mxGeometry>
                </mxCell>
                <mxCell id="139" value="&lt;font style=&quot;font-size: 20px&quot;&gt;Is N &amp;gt; = 0&lt;/font&gt;" style="text;html=1;resizable=0;autosize=1;align=center;verticalAlign=middle;points=[];fillColor=none;strokeColor=none;rounded=0;" vertex="1" parent="136">
                    <mxGeometry width="100" height="20" as="geometry"/>
                </mxCell>
                <mxCell id="140" value="&lt;font style=&quot;font-size: 20px&quot;&gt;Yes&lt;/font&gt;" style="text;html=1;resizable=0;autosize=1;align=center;verticalAlign=middle;points=[];fillColor=none;strokeColor=none;rounded=0;" vertex="1" parent="136">
                    <mxGeometry x="300" width="50" height="20" as="geometry"/>
                </mxCell>
                <mxCell id="141" value="&lt;font style=&quot;font-size: 20px&quot;&gt;No&lt;/font&gt;" style="text;html=1;resizable=0;autosize=1;align=center;verticalAlign=middle;points=[];fillColor=none;strokeColor=none;rounded=0;" vertex="1" parent="136">
                    <mxGeometry x="30" y="200" width="40" height="20" as="geometry"/>
                </mxCell>
                <mxCell id="142" value="" style="whiteSpace=wrap;html=1;fontSize=20;rounded=1;container=0;" vertex="1" parent="1">
                    <mxGeometry x="1042.75" y="2280" width="327.25" height="80" as="geometry"/>
                </mxCell>
                <mxCell id="143" value="&lt;span style=&quot;font-size: 20px&quot;&gt;temp = a&lt;/span&gt;" style="text;html=1;resizable=0;autosize=1;align=center;verticalAlign=middle;points=[];fillColor=none;strokeColor=none;rounded=0;container=0;" vertex="1" parent="1">
                    <mxGeometry x="1063.75" y="2310" width="90" height="20" as="geometry"/>
                </mxCell>
                <mxCell id="144" value="" style="ellipse;whiteSpace=wrap;html=1;container=0;" vertex="1" parent="1">
                    <mxGeometry x="1172.75" y="2300" width="40" height="40" as="geometry"/>
                </mxCell>
                <mxCell id="145" value="" style="ellipse;whiteSpace=wrap;html=1;container=0;" vertex="1" parent="1">
                    <mxGeometry x="1237.25" y="2300" width="40" height="40" as="geometry"/>
                </mxCell>
                <mxCell id="146" value="" style="ellipse;whiteSpace=wrap;html=1;container=0;" vertex="1" parent="1">
                    <mxGeometry x="1301" y="2300" width="40" height="40" as="geometry"/>
                </mxCell>
                <mxCell id="147" value="" style="whiteSpace=wrap;html=1;fontSize=20;rounded=1;container=0;" vertex="1" parent="1">
                    <mxGeometry x="1036.38" y="2400" width="340" height="220" as="geometry"/>
                </mxCell>
                <mxCell id="148" value="&lt;span style=&quot;font-size: 20px&quot;&gt;A&lt;/span&gt;" style="text;html=1;resizable=0;autosize=1;align=center;verticalAlign=middle;points=[];fillColor=none;strokeColor=none;rounded=0;container=0;" vertex="1" parent="1">
                    <mxGeometry x="1152.38" y="2420" width="30" height="20" as="geometry"/>
                </mxCell>
                <mxCell id="149" value="" style="ellipse;whiteSpace=wrap;html=1;container=0;" vertex="1" parent="1">
                    <mxGeometry x="1152.38" y="2490" width="40" height="40" as="geometry"/>
                </mxCell>
                <mxCell id="150" value="&lt;font style=&quot;font-size: 20px&quot;&gt;+&lt;/font&gt;" style="text;html=1;resizable=0;autosize=1;align=center;verticalAlign=middle;points=[];fillColor=none;strokeColor=none;rounded=0;container=0;" vertex="1" parent="1">
                    <mxGeometry x="1226.38" y="2460" width="30" height="20" as="geometry"/>
                </mxCell>
                <mxCell id="151" value="&lt;font style=&quot;font-size: 20px&quot;&gt;B&lt;/font&gt;" style="text;html=1;resizable=0;autosize=1;align=center;verticalAlign=middle;points=[];fillColor=none;strokeColor=none;rounded=0;container=0;" vertex="1" parent="1">
                    <mxGeometry x="1292.38" y="2420" width="30" height="20" as="geometry"/>
                </mxCell>
                <mxCell id="152" value="" style="ellipse;whiteSpace=wrap;html=1;container=0;" vertex="1" parent="1">
                    <mxGeometry x="1208.5" y="2550" width="40" height="40" as="geometry"/>
                </mxCell>
                <mxCell id="153" value="&lt;span style=&quot;font-size: 20px&quot;&gt;a =&lt;/span&gt;" style="text;html=1;resizable=0;autosize=1;align=center;verticalAlign=middle;points=[];fillColor=none;strokeColor=none;rounded=0;container=0;" vertex="1" parent="1">
                    <mxGeometry x="1051.38" y="2470" width="40" height="20" as="geometry"/>
                </mxCell>
                <mxCell id="154" value="" style="ellipse;whiteSpace=wrap;html=1;container=0;" vertex="1" parent="1">
                    <mxGeometry x="1152.38" y="2550" width="40" height="40" as="geometry"/>
                </mxCell>
                <mxCell id="155" value="" style="ellipse;whiteSpace=wrap;html=1;container=0;" vertex="1" parent="1">
                    <mxGeometry x="1289.5" y="2490" width="40" height="40" as="geometry"/>
                </mxCell>
                <mxCell id="156" value="" style="ellipse;whiteSpace=wrap;html=1;container=0;" vertex="1" parent="1">
                    <mxGeometry x="1289.5" y="2550" width="40" height="40" as="geometry"/>
                </mxCell>
                <mxCell id="157" value="" style="whiteSpace=wrap;html=1;fontSize=20;rounded=1;container=0;" vertex="1" parent="1">
                    <mxGeometry x="1038.5" y="2680" width="341.5" height="80" as="geometry"/>
                </mxCell>
                <mxCell id="158" value="&lt;span style=&quot;font-size: 20px&quot;&gt;b = temp&lt;/span&gt;" style="text;html=1;resizable=0;autosize=1;align=center;verticalAlign=middle;points=[];fillColor=none;strokeColor=none;rounded=0;container=0;" vertex="1" parent="1">
                    <mxGeometry x="1054.5" y="2710" width="90" height="20" as="geometry"/>
                </mxCell>
                <mxCell id="159" value="" style="ellipse;whiteSpace=wrap;html=1;container=0;" vertex="1" parent="1">
                    <mxGeometry x="1159.5" y="2700" width="40" height="40" as="geometry"/>
                </mxCell>
                <mxCell id="160" value="" style="ellipse;whiteSpace=wrap;html=1;container=0;" vertex="1" parent="1">
                    <mxGeometry x="1227" y="2700" width="40" height="40" as="geometry"/>
                </mxCell>
                <mxCell id="161" value="" style="ellipse;whiteSpace=wrap;html=1;container=0;" vertex="1" parent="1">
                    <mxGeometry x="1300" y="2700" width="40" height="40" as="geometry"/>
                </mxCell>
                <mxCell id="162" value="" style="whiteSpace=wrap;html=1;rounded=1;fontSize=20;container=0;" vertex="1" parent="1">
                    <mxGeometry x="1038.5" y="2800" width="426" height="150" as="geometry"/>
                </mxCell>
                <mxCell id="163" value="" style="ellipse;whiteSpace=wrap;html=1;container=0;" vertex="1" parent="1">
                    <mxGeometry x="1158.5" y="2815" width="40" height="40" as="geometry"/>
                </mxCell>
                <mxCell id="164" value="" style="ellipse;whiteSpace=wrap;html=1;container=0;" vertex="1" parent="1">
                    <mxGeometry x="1214.5" y="2895" width="40" height="40" as="geometry"/>
                </mxCell>
                <mxCell id="165" value="" style="ellipse;whiteSpace=wrap;html=1;container=0;" vertex="1" parent="1">
                    <mxGeometry x="1279.5" y="2815" width="40" height="40" as="geometry"/>
                </mxCell>
                <mxCell id="166" value="" style="ellipse;whiteSpace=wrap;html=1;container=0;" vertex="1" parent="1">
                    <mxGeometry x="1339.5" y="2895" width="40" height="40" as="geometry"/>
                </mxCell>
                <mxCell id="167" value="" style="ellipse;whiteSpace=wrap;html=1;container=0;" vertex="1" parent="1">
                    <mxGeometry x="1398.5" y="2815" width="40" height="40" as="geometry"/>
                </mxCell>
                <mxCell id="168" value="" style="endArrow=none;html=1;fontSize=20;" edge="1" parent="1">
                    <mxGeometry width="50" height="50" relative="1" as="geometry">
                        <mxPoint x="1393.5" y="2860" as="sourcePoint"/>
                        <mxPoint x="1443.5" y="2810" as="targetPoint"/>
                    </mxGeometry>
                </mxCell>
                <mxCell id="169" value="&lt;span style=&quot;font-size: 20px&quot;&gt;n = n -1&lt;/span&gt;" style="text;html=1;resizable=0;autosize=1;align=center;verticalAlign=middle;points=[];fillColor=none;strokeColor=none;rounded=0;container=0;" vertex="1" parent="1">
                    <mxGeometry x="1045" y="2865" width="80" height="20" as="geometry"/>
                </mxCell>
                <mxCell id="170" value="" style="endArrow=none;html=1;fontSize=20;" edge="1" parent="1">
                    <mxGeometry width="50" height="50" relative="1" as="geometry">
                        <mxPoint x="1334.5" y="2940" as="sourcePoint"/>
                        <mxPoint x="1384.5" y="2890" as="targetPoint"/>
                    </mxGeometry>
                </mxCell>
                <mxCell id="171" value="" style="endArrow=none;html=1;fontSize=20;" edge="1" parent="1">
                    <mxGeometry width="50" height="50" relative="1" as="geometry">
                        <mxPoint x="1276" y="2860" as="sourcePoint"/>
                        <mxPoint x="1326" y="2810" as="targetPoint"/>
                    </mxGeometry>
                </mxCell>
                <mxCell id="172" value="" style="endArrow=none;html=1;fontSize=20;" edge="1" parent="1">
                    <mxGeometry width="50" height="50" relative="1" as="geometry">
                        <mxPoint x="1209.5" y="2940" as="sourcePoint"/>
                        <mxPoint x="1259.5" y="2890" as="targetPoint"/>
                    </mxGeometry>
                </mxCell>
                <mxCell id="173" value="" style="group" vertex="1" connectable="0" parent="1">
                    <mxGeometry x="620" y="3000" width="350" height="220" as="geometry"/>
                </mxCell>
                <mxCell id="174" style="edgeStyle=none;html=1;fontSize=20;" edge="1" parent="173" source="176">
                    <mxGeometry relative="1" as="geometry">
                        <mxPoint x="260" y="10" as="targetPoint"/>
                    </mxGeometry>
                </mxCell>
                <mxCell id="175" style="edgeStyle=none;html=1;fontSize=20;" edge="1" parent="173" source="176">
                    <mxGeometry relative="1" as="geometry">
                        <mxPoint x="50" y="180" as="targetPoint"/>
                    </mxGeometry>
                </mxCell>
                <mxCell id="176" value="&lt;font style=&quot;font-size: 20px&quot;&gt;Is N &amp;gt; = 0&lt;/font&gt;" style="text;html=1;resizable=0;autosize=1;align=center;verticalAlign=middle;points=[];fillColor=none;strokeColor=none;rounded=0;" vertex="1" parent="173">
                    <mxGeometry width="100" height="20" as="geometry"/>
                </mxCell>
                <mxCell id="177" value="&lt;font style=&quot;font-size: 20px&quot;&gt;Yes&lt;/font&gt;" style="text;html=1;resizable=0;autosize=1;align=center;verticalAlign=middle;points=[];fillColor=none;strokeColor=none;rounded=0;" vertex="1" parent="173">
                    <mxGeometry x="300" width="50" height="20" as="geometry"/>
                </mxCell>
                <mxCell id="178" value="&lt;font style=&quot;font-size: 20px&quot;&gt;No&lt;/font&gt;" style="text;html=1;resizable=0;autosize=1;align=center;verticalAlign=middle;points=[];fillColor=none;strokeColor=none;rounded=0;" vertex="1" parent="173">
                    <mxGeometry x="30" y="200" width="40" height="20" as="geometry"/>
                </mxCell>
                <mxCell id="179" value="" style="whiteSpace=wrap;html=1;fontSize=20;rounded=1;container=0;" vertex="1" parent="1">
                    <mxGeometry x="1040" y="3000" width="327.25" height="140" as="geometry"/>
                </mxCell>
                <mxCell id="180" value="&lt;span style=&quot;font-size: 20px&quot;&gt;temp = a&lt;/span&gt;" style="text;html=1;resizable=0;autosize=1;align=center;verticalAlign=middle;points=[];fillColor=none;strokeColor=none;rounded=0;container=0;" vertex="1" parent="1">
                    <mxGeometry x="1061" y="3030" width="90" height="20" as="geometry"/>
                </mxCell>
                <mxCell id="181" value="" style="ellipse;whiteSpace=wrap;html=1;container=0;" vertex="1" parent="1">
                    <mxGeometry x="1170" y="3020" width="40" height="40" as="geometry"/>
                </mxCell>
                <mxCell id="182" value="" style="ellipse;whiteSpace=wrap;html=1;container=0;" vertex="1" parent="1">
                    <mxGeometry x="1234.5" y="3020" width="40" height="40" as="geometry"/>
                </mxCell>
                <mxCell id="183" value="" style="ellipse;whiteSpace=wrap;html=1;container=0;" vertex="1" parent="1">
                    <mxGeometry x="1298.25" y="3020" width="40" height="40" as="geometry"/>
                </mxCell>
                <mxCell id="184" value="" style="ellipse;whiteSpace=wrap;html=1;container=0;" vertex="1" parent="1">
                    <mxGeometry x="1197.25" y="3080" width="40" height="40" as="geometry"/>
                </mxCell>
                <mxCell id="185" value="" style="ellipse;whiteSpace=wrap;html=1;container=0;" vertex="1" parent="1">
                    <mxGeometry x="1271" y="3080" width="40" height="40" as="geometry"/>
                </mxCell>
                <mxCell id="66" value="&lt;span style=&quot;font-size: 20px&quot;&gt;n = n -1&lt;/span&gt;" style="text;html=1;resizable=0;autosize=1;align=center;verticalAlign=middle;points=[];fillColor=none;strokeColor=none;rounded=0;container=0;" vertex="1" parent="1">
                    <mxGeometry x="1060" y="705" width="80" height="20" as="geometry"/>
                </mxCell>
                <mxCell id="186" value="" style="whiteSpace=wrap;html=1;fontSize=20;rounded=1;container=0;" vertex="1" parent="1">
                    <mxGeometry x="1040" y="1200" width="201" height="80" as="geometry"/>
                </mxCell>
                <mxCell id="187" value="&lt;span style=&quot;font-size: 20px&quot;&gt;b = temp&lt;/span&gt;" style="text;html=1;resizable=0;autosize=1;align=center;verticalAlign=middle;points=[];fillColor=none;strokeColor=none;rounded=0;container=0;" vertex="1" parent="1">
                    <mxGeometry x="1054.5" y="1230" width="90" height="20" as="geometry"/>
                </mxCell>
                <mxCell id="188" value="" style="ellipse;whiteSpace=wrap;html=1;container=0;" vertex="1" parent="1">
                    <mxGeometry x="1161" y="1220" width="40" height="40" as="geometry"/>
                </mxCell>
                <mxCell id="189" value="" style="whiteSpace=wrap;html=1;fontSize=20;rounded=1;container=0;" vertex="1" parent="1">
                    <mxGeometry x="1038.5" y="3190" width="361.5" height="280" as="geometry"/>
                </mxCell>
                <mxCell id="190" value="&lt;span style=&quot;font-size: 20px&quot;&gt;A&lt;/span&gt;" style="text;html=1;resizable=0;autosize=1;align=center;verticalAlign=middle;points=[];fillColor=none;strokeColor=none;rounded=0;container=0;" vertex="1" parent="1">
                    <mxGeometry x="1154.5" y="3210" width="30" height="20" as="geometry"/>
                </mxCell>
                <mxCell id="191" value="" style="ellipse;whiteSpace=wrap;html=1;container=0;" vertex="1" parent="1">
                    <mxGeometry x="1154.5" y="3280" width="40" height="40" as="geometry"/>
                </mxCell>
                <mxCell id="192" value="&lt;font style=&quot;font-size: 20px&quot;&gt;+&lt;/font&gt;" style="text;html=1;resizable=0;autosize=1;align=center;verticalAlign=middle;points=[];fillColor=none;strokeColor=none;rounded=0;container=0;" vertex="1" parent="1">
                    <mxGeometry x="1228.5" y="3250" width="30" height="20" as="geometry"/>
                </mxCell>
                <mxCell id="193" value="&lt;font style=&quot;font-size: 20px&quot;&gt;B&lt;/font&gt;" style="text;html=1;resizable=0;autosize=1;align=center;verticalAlign=middle;points=[];fillColor=none;strokeColor=none;rounded=0;container=0;" vertex="1" parent="1">
                    <mxGeometry x="1294.5" y="3210" width="30" height="20" as="geometry"/>
                </mxCell>
                <mxCell id="194" value="" style="ellipse;whiteSpace=wrap;html=1;container=0;" vertex="1" parent="1">
                    <mxGeometry x="1210.62" y="3340" width="40" height="40" as="geometry"/>
                </mxCell>
                <mxCell id="195" value="&lt;span style=&quot;font-size: 20px&quot;&gt;a =&lt;/span&gt;" style="text;html=1;resizable=0;autosize=1;align=center;verticalAlign=middle;points=[];fillColor=none;strokeColor=none;rounded=0;container=0;" vertex="1" parent="1">
                    <mxGeometry x="1053.5" y="3260" width="40" height="20" as="geometry"/>
                </mxCell>
                <mxCell id="196" value="" style="ellipse;whiteSpace=wrap;html=1;container=0;" vertex="1" parent="1">
                    <mxGeometry x="1154.5" y="3340" width="40" height="40" as="geometry"/>
                </mxCell>
                <mxCell id="197" value="" style="ellipse;whiteSpace=wrap;html=1;container=0;" vertex="1" parent="1">
                    <mxGeometry x="1291.62" y="3280" width="40" height="40" as="geometry"/>
                </mxCell>
                <mxCell id="198" value="" style="ellipse;whiteSpace=wrap;html=1;container=0;" vertex="1" parent="1">
                    <mxGeometry x="1291.62" y="3340" width="40" height="40" as="geometry"/>
                </mxCell>
                <mxCell id="200" value="" style="ellipse;whiteSpace=wrap;html=1;container=0;" vertex="1" parent="1">
                    <mxGeometry x="1154.25" y="3400" width="40" height="40" as="geometry"/>
                </mxCell>
                <mxCell id="201" value="" style="ellipse;whiteSpace=wrap;html=1;container=0;" vertex="1" parent="1">
                    <mxGeometry x="1210" y="3400" width="40" height="40" as="geometry"/>
                </mxCell>
                <mxCell id="202" value="" style="ellipse;whiteSpace=wrap;html=1;container=0;" vertex="1" parent="1">
                    <mxGeometry x="1294.5" y="3400" width="40" height="40" as="geometry"/>
                </mxCell>
                <mxCell id="203" value="" style="whiteSpace=wrap;html=1;fontSize=20;rounded=1;container=0;" vertex="1" parent="1">
                    <mxGeometry x="1035.63" y="3520" width="341.5" height="140" as="geometry"/>
                </mxCell>
                <mxCell id="204" value="&lt;span style=&quot;font-size: 20px&quot;&gt;b = temp&lt;/span&gt;" style="text;html=1;resizable=0;autosize=1;align=center;verticalAlign=middle;points=[];fillColor=none;strokeColor=none;rounded=0;container=0;" vertex="1" parent="1">
                    <mxGeometry x="1051.63" y="3550" width="90" height="20" as="geometry"/>
                </mxCell>
                <mxCell id="205" value="" style="ellipse;whiteSpace=wrap;html=1;container=0;" vertex="1" parent="1">
                    <mxGeometry x="1156.63" y="3540" width="40" height="40" as="geometry"/>
                </mxCell>
                <mxCell id="206" value="" style="ellipse;whiteSpace=wrap;html=1;container=0;" vertex="1" parent="1">
                    <mxGeometry x="1228.5" y="3540" width="40" height="40" as="geometry"/>
                </mxCell>
                <mxCell id="207" value="" style="ellipse;whiteSpace=wrap;html=1;container=0;" vertex="1" parent="1">
                    <mxGeometry x="1297.13" y="3540" width="40" height="40" as="geometry"/>
                </mxCell>
                <mxCell id="210" value="" style="ellipse;whiteSpace=wrap;html=1;container=0;" vertex="1" parent="1">
                    <mxGeometry x="1188.5" y="3600" width="40" height="40" as="geometry"/>
                </mxCell>
                <mxCell id="211" value="" style="ellipse;whiteSpace=wrap;html=1;container=0;" vertex="1" parent="1">
                    <mxGeometry x="1267" y="3600" width="40" height="40" as="geometry"/>
                </mxCell>
                <mxCell id="212" value="" style="whiteSpace=wrap;html=1;rounded=1;fontSize=20;container=0;" vertex="1" parent="1">
                    <mxGeometry x="1036.38" y="3720" width="426" height="150" as="geometry"/>
                </mxCell>
                <mxCell id="213" value="" style="ellipse;whiteSpace=wrap;html=1;container=0;" vertex="1" parent="1">
                    <mxGeometry x="1156.38" y="3735" width="40" height="40" as="geometry"/>
                </mxCell>
                <mxCell id="214" value="" style="ellipse;whiteSpace=wrap;html=1;container=0;" vertex="1" parent="1">
                    <mxGeometry x="1212.38" y="3815" width="40" height="40" as="geometry"/>
                </mxCell>
                <mxCell id="215" value="" style="ellipse;whiteSpace=wrap;html=1;container=0;" vertex="1" parent="1">
                    <mxGeometry x="1277.38" y="3735" width="40" height="40" as="geometry"/>
                </mxCell>
                <mxCell id="216" value="" style="ellipse;whiteSpace=wrap;html=1;container=0;" vertex="1" parent="1">
                    <mxGeometry x="1337.38" y="3815" width="40" height="40" as="geometry"/>
                </mxCell>
                <mxCell id="217" value="" style="ellipse;whiteSpace=wrap;html=1;container=0;" vertex="1" parent="1">
                    <mxGeometry x="1396.38" y="3735" width="40" height="40" as="geometry"/>
                </mxCell>
                <mxCell id="218" value="" style="endArrow=none;html=1;fontSize=20;" edge="1" parent="1">
                    <mxGeometry width="50" height="50" relative="1" as="geometry">
                        <mxPoint x="1391.38" y="3780" as="sourcePoint"/>
                        <mxPoint x="1441.38" y="3730" as="targetPoint"/>
                    </mxGeometry>
                </mxCell>
                <mxCell id="219" value="&lt;span style=&quot;font-size: 20px&quot;&gt;n = n -1&lt;/span&gt;" style="text;html=1;resizable=0;autosize=1;align=center;verticalAlign=middle;points=[];fillColor=none;strokeColor=none;rounded=0;container=0;" vertex="1" parent="1">
                    <mxGeometry x="1042.88" y="3785" width="80" height="20" as="geometry"/>
                </mxCell>
                <mxCell id="220" value="" style="endArrow=none;html=1;fontSize=20;" edge="1" parent="1">
                    <mxGeometry width="50" height="50" relative="1" as="geometry">
                        <mxPoint x="1332.38" y="3860" as="sourcePoint"/>
                        <mxPoint x="1382.38" y="3810" as="targetPoint"/>
                    </mxGeometry>
                </mxCell>
                <mxCell id="221" value="" style="endArrow=none;html=1;fontSize=20;" edge="1" parent="1">
                    <mxGeometry width="50" height="50" relative="1" as="geometry">
                        <mxPoint x="1273.88" y="3780" as="sourcePoint"/>
                        <mxPoint x="1323.88" y="3730" as="targetPoint"/>
                    </mxGeometry>
                </mxCell>
                <mxCell id="222" value="" style="endArrow=none;html=1;fontSize=20;" edge="1" parent="1">
                    <mxGeometry width="50" height="50" relative="1" as="geometry">
                        <mxPoint x="1207.38" y="3860" as="sourcePoint"/>
                        <mxPoint x="1257.38" y="3810" as="targetPoint"/>
                    </mxGeometry>
                </mxCell>
                <mxCell id="223" value="" style="endArrow=none;html=1;fontSize=20;" edge="1" parent="1">
                    <mxGeometry width="50" height="50" relative="1" as="geometry">
                        <mxPoint x="1151.63" y="3780" as="sourcePoint"/>
                        <mxPoint x="1201.63" y="3730" as="targetPoint"/>
                    </mxGeometry>
                </mxCell>
                <mxCell id="224" value="" style="group" vertex="1" connectable="0" parent="1">
                    <mxGeometry x="620" y="3920" width="350" height="220" as="geometry"/>
                </mxCell>
                <mxCell id="225" style="edgeStyle=none;html=1;fontSize=20;" edge="1" parent="224" source="227">
                    <mxGeometry relative="1" as="geometry">
                        <mxPoint x="260" y="10" as="targetPoint"/>
                    </mxGeometry>
                </mxCell>
                <mxCell id="226" style="edgeStyle=none;html=1;fontSize=20;" edge="1" parent="224" source="227">
                    <mxGeometry relative="1" as="geometry">
                        <mxPoint x="50" y="180" as="targetPoint"/>
                    </mxGeometry>
                </mxCell>
                <mxCell id="227" value="&lt;font style=&quot;font-size: 20px&quot;&gt;Is N &amp;gt; = 0&lt;/font&gt;" style="text;html=1;resizable=0;autosize=1;align=center;verticalAlign=middle;points=[];fillColor=none;strokeColor=none;rounded=0;" vertex="1" parent="224">
                    <mxGeometry width="100" height="20" as="geometry"/>
                </mxCell>
                <mxCell id="228" value="&lt;font style=&quot;font-size: 20px&quot;&gt;Yes&lt;/font&gt;" style="text;html=1;resizable=0;autosize=1;align=center;verticalAlign=middle;points=[];fillColor=none;strokeColor=none;rounded=0;" vertex="1" parent="224">
                    <mxGeometry x="300" width="50" height="20" as="geometry"/>
                </mxCell>
                <mxCell id="229" value="&lt;font style=&quot;font-size: 20px&quot;&gt;No&lt;/font&gt;" style="text;html=1;resizable=0;autosize=1;align=center;verticalAlign=middle;points=[];fillColor=none;strokeColor=none;rounded=0;" vertex="1" parent="224">
                    <mxGeometry x="30" y="200" width="40" height="20" as="geometry"/>
                </mxCell>
                <mxCell id="230" value="" style="whiteSpace=wrap;html=1;fontSize=20;rounded=1;container=0;" vertex="1" parent="1">
                    <mxGeometry x="1038.5" y="3920" width="361.5" height="200" as="geometry"/>
                </mxCell>
                <mxCell id="231" value="&lt;span style=&quot;font-size: 20px&quot;&gt;temp = a&lt;/span&gt;" style="text;html=1;resizable=0;autosize=1;align=center;verticalAlign=middle;points=[];fillColor=none;strokeColor=none;rounded=0;container=0;" vertex="1" parent="1">
                    <mxGeometry x="1059.5" y="3950" width="90" height="20" as="geometry"/>
                </mxCell>
                <mxCell id="232" value="" style="ellipse;whiteSpace=wrap;html=1;container=0;" vertex="1" parent="1">
                    <mxGeometry x="1168.5" y="3940" width="40" height="40" as="geometry"/>
                </mxCell>
                <mxCell id="233" value="" style="ellipse;whiteSpace=wrap;html=1;container=0;" vertex="1" parent="1">
                    <mxGeometry x="1233" y="3940" width="40" height="40" as="geometry"/>
                </mxCell>
                <mxCell id="234" value="" style="ellipse;whiteSpace=wrap;html=1;container=0;" vertex="1" parent="1">
                    <mxGeometry x="1297.38" y="4000" width="40" height="40" as="geometry"/>
                </mxCell>
                <mxCell id="235" value="" style="ellipse;whiteSpace=wrap;html=1;container=0;" vertex="1" parent="1">
                    <mxGeometry x="1168.5" y="4000" width="40" height="40" as="geometry"/>
                </mxCell>
                <mxCell id="236" value="" style="ellipse;whiteSpace=wrap;html=1;container=0;" vertex="1" parent="1">
                    <mxGeometry x="1233" y="4000" width="40" height="40" as="geometry"/>
                </mxCell>
                <mxCell id="237" value="" style="ellipse;whiteSpace=wrap;html=1;container=0;" vertex="1" parent="1">
                    <mxGeometry x="1297.38" y="3940" width="40" height="40" as="geometry"/>
                </mxCell>
                <mxCell id="239" value="" style="ellipse;whiteSpace=wrap;html=1;container=0;" vertex="1" parent="1">
                    <mxGeometry x="1168.5" y="4060" width="40" height="40" as="geometry"/>
                </mxCell>
                <mxCell id="240" value="" style="ellipse;whiteSpace=wrap;html=1;container=0;" vertex="1" parent="1">
                    <mxGeometry x="1233" y="4060" width="40" height="40" as="geometry"/>
                </mxCell>
                <mxCell id="241" value="" style="whiteSpace=wrap;html=1;fontSize=20;rounded=1;container=0;" vertex="1" parent="1">
                    <mxGeometry x="1040" y="4160" width="570" height="280" as="geometry"/>
                </mxCell>
                <mxCell id="242" value="&lt;span style=&quot;font-size: 20px&quot;&gt;A&lt;/span&gt;" style="text;html=1;resizable=0;autosize=1;align=center;verticalAlign=middle;points=[];fillColor=none;strokeColor=none;rounded=0;container=0;" vertex="1" parent="1">
                    <mxGeometry x="1156" y="4180" width="30" height="20" as="geometry"/>
                </mxCell>
                <mxCell id="243" value="" style="ellipse;whiteSpace=wrap;html=1;container=0;" vertex="1" parent="1">
                    <mxGeometry x="1156" y="4250" width="40" height="40" as="geometry"/>
                </mxCell>
                <mxCell id="244" value="&lt;font style=&quot;font-size: 20px&quot;&gt;+&lt;/font&gt;" style="text;html=1;resizable=0;autosize=1;align=center;verticalAlign=middle;points=[];fillColor=none;strokeColor=none;rounded=0;container=0;" vertex="1" parent="1">
                    <mxGeometry x="1329.5" y="4220" width="30" height="20" as="geometry"/>
                </mxCell>
                <mxCell id="245" value="&lt;font style=&quot;font-size: 20px&quot;&gt;B&lt;/font&gt;" style="text;html=1;resizable=0;autosize=1;align=center;verticalAlign=middle;points=[];fillColor=none;strokeColor=none;rounded=0;container=0;" vertex="1" parent="1">
                    <mxGeometry x="1464.5" y="4180" width="30" height="20" as="geometry"/>
                </mxCell>
                <mxCell id="246" value="" style="ellipse;whiteSpace=wrap;html=1;container=0;" vertex="1" parent="1">
                    <mxGeometry x="1212.12" y="4310" width="40" height="40" as="geometry"/>
                </mxCell>
                <mxCell id="247" value="&lt;span style=&quot;font-size: 20px&quot;&gt;a =&lt;/span&gt;" style="text;html=1;resizable=0;autosize=1;align=center;verticalAlign=middle;points=[];fillColor=none;strokeColor=none;rounded=0;container=0;" vertex="1" parent="1">
                    <mxGeometry x="1055" y="4230" width="40" height="20" as="geometry"/>
                </mxCell>
                <mxCell id="248" value="" style="ellipse;whiteSpace=wrap;html=1;container=0;" vertex="1" parent="1">
                    <mxGeometry x="1156" y="4310" width="40" height="40" as="geometry"/>
                </mxCell>
                <mxCell id="249" value="" style="ellipse;whiteSpace=wrap;html=1;container=0;" vertex="1" parent="1">
                    <mxGeometry x="1212.12" y="4250" width="40" height="40" as="geometry"/>
                </mxCell>
                <mxCell id="250" value="" style="ellipse;whiteSpace=wrap;html=1;container=0;" vertex="1" parent="1">
                    <mxGeometry x="1268.5" y="4310" width="40" height="40" as="geometry"/>
                </mxCell>
                <mxCell id="251" value="" style="ellipse;whiteSpace=wrap;html=1;container=0;" vertex="1" parent="1">
                    <mxGeometry x="1155.75" y="4370" width="40" height="40" as="geometry"/>
                </mxCell>
                <mxCell id="252" value="" style="ellipse;whiteSpace=wrap;html=1;container=0;" vertex="1" parent="1">
                    <mxGeometry x="1211.5" y="4370" width="40" height="40" as="geometry"/>
                </mxCell>
                <mxCell id="253" value="" style="ellipse;whiteSpace=wrap;html=1;container=0;" vertex="1" parent="1">
                    <mxGeometry x="1267" y="4370" width="40" height="40" as="geometry"/>
                </mxCell>
                <mxCell id="254" value="" style="ellipse;whiteSpace=wrap;html=1;container=0;" vertex="1" parent="1">
                    <mxGeometry x="1389.25" y="4240" width="40" height="40" as="geometry"/>
                </mxCell>
                <mxCell id="255" value="" style="ellipse;whiteSpace=wrap;html=1;container=0;" vertex="1" parent="1">
                    <mxGeometry x="1461.12" y="4240" width="40" height="40" as="geometry"/>
                </mxCell>
                <mxCell id="256" value="" style="ellipse;whiteSpace=wrap;html=1;container=0;" vertex="1" parent="1">
                    <mxGeometry x="1529.75" y="4240" width="40" height="40" as="geometry"/>
                </mxCell>
                <mxCell id="257" value="" style="ellipse;whiteSpace=wrap;html=1;container=0;" vertex="1" parent="1">
                    <mxGeometry x="1421.12" y="4300" width="40" height="40" as="geometry"/>
                </mxCell>
                <mxCell id="258" value="" style="ellipse;whiteSpace=wrap;html=1;container=0;" vertex="1" parent="1">
                    <mxGeometry x="1499.62" y="4300" width="40" height="40" as="geometry"/>
                </mxCell>
                <mxCell id="259" value="" style="whiteSpace=wrap;html=1;fontSize=20;rounded=1;container=0;" vertex="1" parent="1">
                    <mxGeometry x="1040" y="4480" width="400" height="200" as="geometry"/>
                </mxCell>
                <mxCell id="260" value="&lt;span style=&quot;font-size: 20px&quot;&gt;b = temp&lt;/span&gt;" style="text;html=1;resizable=0;autosize=1;align=center;verticalAlign=middle;points=[];fillColor=none;strokeColor=none;rounded=0;container=0;" vertex="1" parent="1">
                    <mxGeometry x="1056" y="4510" width="90" height="20" as="geometry"/>
                </mxCell>
                <mxCell id="261" value="" style="ellipse;whiteSpace=wrap;html=1;container=0;" vertex="1" parent="1">
                    <mxGeometry x="1161" y="4500" width="40" height="40" as="geometry"/>
                </mxCell>
                <mxCell id="262" value="" style="ellipse;whiteSpace=wrap;html=1;container=0;" vertex="1" parent="1">
                    <mxGeometry x="1232.87" y="4500" width="40" height="40" as="geometry"/>
                </mxCell>
                <mxCell id="263" value="" style="ellipse;whiteSpace=wrap;html=1;container=0;" vertex="1" parent="1">
                    <mxGeometry x="1233" y="4560" width="40" height="40" as="geometry"/>
                </mxCell>
                <mxCell id="264" value="" style="ellipse;whiteSpace=wrap;html=1;container=0;" vertex="1" parent="1">
                    <mxGeometry x="1161" y="4560" width="40" height="40" as="geometry"/>
                </mxCell>
                <mxCell id="265" value="" style="ellipse;whiteSpace=wrap;html=1;container=0;" vertex="1" parent="1">
                    <mxGeometry x="1161" y="4620" width="40" height="40" as="geometry"/>
                </mxCell>
                <mxCell id="266" value="" style="ellipse;whiteSpace=wrap;html=1;container=0;" vertex="1" parent="1">
                    <mxGeometry x="1229.38" y="4620" width="40" height="40" as="geometry"/>
                </mxCell>
                <mxCell id="267" value="" style="ellipse;whiteSpace=wrap;html=1;container=0;" vertex="1" parent="1">
                    <mxGeometry x="1297.13" y="4500" width="40" height="40" as="geometry"/>
                </mxCell>
                <mxCell id="268" value="" style="ellipse;whiteSpace=wrap;html=1;container=0;" vertex="1" parent="1">
                    <mxGeometry x="1298.25" y="4560" width="40" height="40" as="geometry"/>
                </mxCell>
                <mxCell id="270" value="" style="whiteSpace=wrap;html=1;rounded=1;fontSize=20;container=0;" vertex="1" parent="1">
                    <mxGeometry x="1038.5" y="4720" width="220" height="70" as="geometry"/>
                </mxCell>
                <mxCell id="277" value="&lt;span style=&quot;font-size: 20px&quot;&gt;n = n -1&lt;/span&gt;" style="text;html=1;resizable=0;autosize=1;align=center;verticalAlign=middle;points=[];fillColor=none;strokeColor=none;rounded=0;container=0;" vertex="1" parent="1">
                    <mxGeometry x="1061.38" y="4745" width="80" height="20" as="geometry"/>
                </mxCell>
                <mxCell id="287" value="" style="endArrow=none;html=1;fontSize=20;" edge="1" parent="1">
                    <mxGeometry width="50" height="50" relative="1" as="geometry">
                        <mxPoint x="1174.25" y="4754.41" as="sourcePoint"/>
                        <mxPoint x="1214.25" y="4754.41" as="targetPoint"/>
                    </mxGeometry>
                </mxCell>
                <mxCell id="288" value="" style="group" vertex="1" connectable="0" parent="1">
                    <mxGeometry x="620" y="4830" width="350" height="220" as="geometry"/>
                </mxCell>
                <mxCell id="289" style="edgeStyle=none;html=1;fontSize=20;" edge="1" parent="288" source="291">
                    <mxGeometry relative="1" as="geometry">
                        <mxPoint x="260" y="10" as="targetPoint"/>
                    </mxGeometry>
                </mxCell>
                <mxCell id="290" style="edgeStyle=none;html=1;fontSize=20;" edge="1" parent="288" source="291">
                    <mxGeometry relative="1" as="geometry">
                        <mxPoint x="50" y="180" as="targetPoint"/>
                    </mxGeometry>
                </mxCell>
                <mxCell id="291" value="&lt;font style=&quot;font-size: 20px&quot;&gt;Is N &amp;gt; = 0&lt;/font&gt;" style="text;html=1;resizable=0;autosize=1;align=center;verticalAlign=middle;points=[];fillColor=none;strokeColor=none;rounded=0;" vertex="1" parent="288">
                    <mxGeometry width="100" height="20" as="geometry"/>
                </mxCell>
                <mxCell id="292" value="&lt;font style=&quot;font-size: 20px&quot;&gt;Yes&lt;/font&gt;" style="text;html=1;resizable=0;autosize=1;align=center;verticalAlign=middle;points=[];fillColor=none;strokeColor=none;rounded=0;" vertex="1" parent="288">
                    <mxGeometry x="300" width="50" height="20" as="geometry"/>
                </mxCell>
                <mxCell id="293" value="&lt;font style=&quot;font-size: 20px&quot;&gt;No&lt;/font&gt;" style="text;html=1;resizable=0;autosize=1;align=center;verticalAlign=middle;points=[];fillColor=none;strokeColor=none;rounded=0;" vertex="1" parent="288">
                    <mxGeometry x="30" y="200" width="40" height="20" as="geometry"/>
                </mxCell>
                <mxCell id="294" value="" style="whiteSpace=wrap;html=1;fontSize=20;rounded=1;container=0;" vertex="1" parent="1">
                    <mxGeometry x="640" y="5080" width="400" height="200" as="geometry"/>
                </mxCell>
                <mxCell id="295" value="&lt;span style=&quot;font-size: 20px&quot;&gt;return b&lt;/span&gt;" style="text;html=1;resizable=0;autosize=1;align=center;verticalAlign=middle;points=[];fillColor=none;strokeColor=none;rounded=0;container=0;" vertex="1" parent="1">
                    <mxGeometry x="661" y="5110" width="80" height="20" as="geometry"/>
                </mxCell>
                <mxCell id="296" value="" style="ellipse;whiteSpace=wrap;html=1;container=0;" vertex="1" parent="1">
                    <mxGeometry x="820" y="5100" width="40" height="40" as="geometry"/>
                </mxCell>
                <mxCell id="297" value="" style="ellipse;whiteSpace=wrap;html=1;container=0;" vertex="1" parent="1">
                    <mxGeometry x="891.8699999999999" y="5100" width="40" height="40" as="geometry"/>
                </mxCell>
                <mxCell id="298" value="" style="ellipse;whiteSpace=wrap;html=1;container=0;" vertex="1" parent="1">
                    <mxGeometry x="892" y="5160" width="40" height="40" as="geometry"/>
                </mxCell>
                <mxCell id="299" value="" style="ellipse;whiteSpace=wrap;html=1;container=0;" vertex="1" parent="1">
                    <mxGeometry x="820" y="5160" width="40" height="40" as="geometry"/>
                </mxCell>
                <mxCell id="300" value="" style="ellipse;whiteSpace=wrap;html=1;container=0;" vertex="1" parent="1">
                    <mxGeometry x="820" y="5220" width="40" height="40" as="geometry"/>
                </mxCell>
                <mxCell id="301" value="" style="ellipse;whiteSpace=wrap;html=1;container=0;" vertex="1" parent="1">
                    <mxGeometry x="888.3800000000001" y="5220" width="40" height="40" as="geometry"/>
                </mxCell>
                <mxCell id="302" value="" style="ellipse;whiteSpace=wrap;html=1;container=0;" vertex="1" parent="1">
                    <mxGeometry x="956.1300000000001" y="5100" width="40" height="40" as="geometry"/>
                </mxCell>
                <mxCell id="303" value="" style="ellipse;whiteSpace=wrap;html=1;container=0;" vertex="1" parent="1">
                    <mxGeometry x="957.25" y="5160" width="40" height="40" as="geometry"/>
                </mxCell>
            </root>
        </mxGraphModel>
    </diagram>
</mxfile>